<?xml version="1.0" encoding="UTF-8"?>
<svg width="611px" height="130px" viewBox="0 0 611 130" version="1.1" xmlns="http://www.w3.org/2000/svg" xmlns:xlink="http://www.w3.org/1999/xlink">
    <!-- Generator: Sketch 61.2 (89653) - https://sketch.com -->
    <title>Group 34</title>
    <desc>Created with Sketch.</desc>
    <defs>
        <polygon id="path-1" points="0.740774704 0.702304348 46.5105771 0.702304348 46.5105771 59.6521739 0.740774704 59.6521739"></polygon>
        <polygon id="path-3" points="0.699541502 0.702304348 46.4693439 0.702304348 46.4693439 59.6521739 0.699541502 59.6521739"></polygon>
        <polygon id="path-5" points="0 0.640990338 116.973126 0.640990338 116.973126 117.413046 0 117.413046"></polygon>
    </defs>
    <g id="Page-1" stroke="none" stroke-width="1" fill="none" fill-rule="evenodd">
        <g id="desktop_site" transform="translate(-745.000000, -180.000000)">
            <g id="Group-34" transform="translate(745.000000, 180.000000)">
                <g id="Group-3" transform="translate(138.000000, 70.000000)">
                    <mask id="mask-2" fill="white">
                        <use xlink:href="#path-1"></use>
                    </mask>
                    <g id="Clip-2"></g>
                    <path d="M31.8117628,25.3184224 L19.6144506,21.9912174 C16.2449644,21.0958758 14.4236206,19.9463727 14.4236206,16.4458758 C14.4236206,12.7172112 16.4669407,11.4608447 22.5371383,11.4608447 C31.7263874,11.4608447 32.0308933,14.1353168 32.5403004,18.5715901 L32.6114466,19.195441 L44.8457549,19.195441 L44.8343715,18.6784534 C44.5554783,6.58267702 37.4123953,0.702304348 22.9924743,0.702304348 C9.05919368,0.702304348 1.99010277,6.36317391 1.99010277,17.5289503 C1.99010277,28.2759379 8.50140711,31.4731739 14.8618814,33.1800994 L28.1235415,36.8134534 C33.1066245,38.1795714 34.0799051,40.0800062 34.0799051,42.9017764 C34.0799051,47.9128012 30.6307352,48.8947888 24.6686798,48.8947888 C14.2016443,48.8947888 13.487336,46.0037019 13.0462292,40.4641366 L13.0120791,39.9991366 L0.740774704,39.9991366 L0.774924901,40.5363416 C1.58314625,54.113764 8.50709881,59.6533292 24.6686798,59.6533292 C30.0729486,59.6533292 46.5105771,59.6533292 46.5105771,42.0497578 C46.5105771,30.254354 38.9235415,27.2275217 31.8117628,25.3184224" id="Fill-1" fill="#FEFEFE" mask="url(#mask-2)"></path>
                </g>
                <polygon id="Fill-4" fill="#FEFEFE" points="232 72 186 72 186 82.667894 202.780805 82.667894 202.780805 128 215.294615 128 215.294615 82.667894 232 82.667894"></polygon>
                <path d="M258.88732,105.904158 L245.730017,105.904158 L252.30723,86.6379584 L258.88732,105.904158 Z M259.206685,72 L245.715631,72 L225,128 L238.18032,128 L242.165202,116.340613 L262.449257,116.340613 L266.434139,128 L280,128 L259.327527,72.3264972 L259.206685,72 Z" id="Fill-6" fill="#FEFEFE"></path>
                <path d="M298.286398,82.4387849 L308.619048,82.4387849 C318.273866,82.4387849 319.564024,83.6788381 319.564024,88.6104122 C319.564024,95.0226041 317.086238,95.9333129 307.932673,95.9333129 L298.286398,95.9333129 L298.286398,82.4387849 Z M332.001367,88.99417 C332.001367,72 320.92823,72 310.21964,72 L286,72 L286,128 L298.286398,128 L298.286398,106.369234 L307.656414,106.369234 L321.082023,128 L336,128 L321.617453,105.495755 C328.697653,103.57983 332.001367,98.3160479 332.001367,88.99417 L332.001367,88.99417 Z" id="Fill-8" fill="#FEFEFE"></path>
                <polygon id="Fill-10" fill="#FEFEFE" points="335 82.667894 351.781863 82.667894 351.781863 128 364.299363 128 364.299363 82.667894 381 82.667894 381 72 335 72"></polygon>
                <path d="M407.653877,80.7674783 C416.60076,80.7674783 418.21385,84.2361962 419.510082,89.1386507 L419.608019,89.5173191 L432,89.5173191 L431.916465,88.9363089 C430.081576,76.3708784 421.921074,70 407.653877,70 C390.151861,70 382,79.4609279 382,99.7702709 C382,119.712508 390.125936,129 407.578984,129 C422.785229,129 430.977417,122.276469 431.919346,109.020185 L431.959673,108.476753 L419.55329,108.476753 L419.495679,108.921905 C418.640166,115.709029 415.474479,118.232522 407.809425,118.232522 C398.289319,118.232522 394.579214,113.338739 394.579214,100.776199 C394.579214,86.5631277 398.367093,80.7674783 407.653877,80.7674783" id="Fill-12" fill="#FEFEFE"></path>
                <path d="M471.695379,101.837854 C471.695379,116.211941 470.380491,118.377039 461.652596,118.377039 C452.134626,118.377039 451.304621,115.590081 451.304621,101.378591 L451.304621,72 L439,72 L439,108.561355 C439,125.525573 448.209926,129 462.034797,129 C475.59441,129 484,125.608297 484,108.715394 L484,72 L471.695379,72 L471.695379,101.837854 Z" id="Fill-14" fill="#FEFEFE"></path>
                <path d="M504.300378,82.4387849 L511.591075,82.4387849 C520.906173,82.4387849 522.542802,83.4640483 522.542802,89.3006035 C522.542802,96.4516723 520.062197,97.4683441 510.901068,97.4683441 L504.300378,97.4683441 L504.300378,82.4387849 Z M513.193488,72 L492,72 L492,128 L504.300378,128 L504.300378,107.904265 L514.416683,107.904265 C524.373317,107.904265 535,106.503836 535,89.7616856 C535,73.3374246 525.123201,72 513.193488,72 L513.193488,72 Z" id="Fill-16" fill="#FEFEFE"></path>
                <g id="Group-20" transform="translate(538.000000, 70.000000)">
                    <mask id="mask-4" fill="white">
                        <use xlink:href="#path-3"></use>
                    </mask>
                    <g id="Clip-19"></g>
                    <path d="M31.7705296,25.3184224 L19.5732174,21.9912174 C16.2037312,21.0958758 14.3823874,19.9463727 14.3823874,16.4458758 C14.3823874,12.7172112 16.4285534,11.4608447 22.4959051,11.4608447 C31.6851542,11.4608447 31.9896601,14.1353168 32.4990672,18.5715901 L32.5702134,19.195441 L44.8045217,19.195441 L44.7931383,18.6784534 C44.5142451,6.58267702 37.3711621,0.702304348 22.9512411,0.702304348 C9.01796047,0.702304348 1.94886957,6.36317391 1.94886957,17.5289503 C1.94886957,28.2759379 8.46017391,31.4731739 14.8206482,33.1800994 L28.0823083,36.8134534 C33.0653913,38.1795714 34.0415178,40.0800062 34.0415178,42.9017764 C34.0415178,47.9128012 30.589502,48.8947888 24.6274466,48.8947888 C14.1604111,48.8947888 13.4461028,46.0037019 13.0078419,40.4641366 L12.9736917,39.9991366 L0.699541502,39.9991366 L0.7336917,40.5363416 C1.54191304,54.113764 8.46586561,59.6533292 24.6274466,59.6533292 C30.0317154,59.6533292 46.4693439,59.6533292 46.4693439,42.0497578 C46.4693439,30.254354 38.8823083,27.2275217 31.7705296,25.3184224" id="Fill-18" fill="#FEFEFE" mask="url(#mask-4)"></path>
                </g>
                <path d="M599.040703,76.034122 L600.686401,76.0430884 C601.385754,76.0371108 601.888067,76.2014944 602.232192,76.5332503 C602.581869,76.8650062 602.745606,77.3701121 602.742831,78.0246575 C602.759482,78.7838107 602.509713,79.4353674 602.035153,79.8627646 C601.563367,80.3080946 600.933395,80.5442092 600.123034,80.547198 L599.040703,80.5531756 L599.040703,76.034122 Z M599.046253,81.509589 L600.236818,81.4886675 C600.844588,81.5305106 601.33025,81.7098381 601.638298,82.1312578 C601.999075,82.5377335 602.215541,83.2161893 602.359852,84.1098381 L602.851064,86.9940224 L604,87 L603.345051,83.4343711 C603.211841,82.7200498 603.020352,82.2 602.753932,81.8024907 C602.490287,81.452802 602.090657,81.2196762 601.566142,81.064259 C602.348751,80.777335 602.923219,80.3648817 603.292322,79.8358655 C603.658649,79.2889166 603.844588,78.6493151 603.852914,77.9260274 C603.858464,76.9217933 603.547641,76.1955168 602.973173,75.7083437 C602.393154,75.2331258 601.599445,75.0209215 600.641998,75.0179328 L598.00555,75 L598,86.985056 L599.046253,86.9880448 L599.046253,81.509589 Z" id="Fill-21" fill="#FEFEFE"></path>
                <path d="M601.491225,73.1900016 C606.060948,73.175493 609.795282,76.9029354 609.783585,81.4811116 C609.795282,86.0739053 606.075604,89.7808833 601.514675,89.8071947 C596.942021,89.7984242 593.234068,86.0622114 593.22819,81.4840351 C593.219412,76.9175528 596.933227,73.1667226 601.491225,73.1900016 M601.517606,91 C606.726327,91.0116701 610.997069,86.7112249 611,81.4635707 C610.985344,76.2217636 606.70874,71.9622471 601.497088,72.0002524 C596.270779,71.9710175 591.985382,76.2422279 592,81.4986525 C592.011762,86.7258423 596.264916,90.9912058 601.517606,91" id="Fill-23" fill="#FEFEFE"></path>
                <g id="Group-27">
                    <mask id="mask-6" fill="white">
                        <use xlink:href="#path-5"></use>
                    </mask>
                    <g id="Clip-26"></g>
                    <path d="M58.4865628,99.0082874 C54.5878425,99.0082874 50.8359721,98.424785 47.2712633,97.3900024 L47.2655045,97.3698816 C42.8600082,95.6567415 41.8291797,91.9027802 41.8291797,91.9027802 C41.4663741,90.8766208 40.7839541,90.0459203 40.2023134,89.1577319 C40.1418458,88.1258237 41.1438802,85.9757754 42.2380558,85.472756 C42.6382937,84.9237464 42.7045201,84.0614275 43.4618048,83.8717174 C43.2285726,83.6187705 42.8715258,83.7222488 42.5778261,83.702128 C42.5115997,83.7653647 42.4079409,83.8515966 42.3445939,83.9148333 C42.4079409,83.97807 42.4914438,84.144785 42.5346349,84.2281425 C42.0048236,84.5673213 40.2253486,85.4756304 39.8884578,86.0648816 C39.4450287,86.0016449 39.0015997,86.0648816 38.5812059,86.2545918 C38.4113208,86.0217657 38.3278179,85.7285773 38.2846267,85.4325145 C37.9477358,85.4325145 36.9313043,86.0850024 36.6116899,86.0648816 C36.2546432,85.8320556 36.3035931,83.7279976 36.1999344,83.3485773 C36.1106727,83.3715725 35.9235111,83.4348092 35.8400082,83.45493 C35.4829614,83.0122729 35.6384495,82.7622005 34.9042002,82.8685531 C34.5845857,82.8886739 33.6027071,82.8857995 33.5854307,82.2735531 C33.8791304,82.2333116 35.2382116,81.8366449 35.3217145,81.4773454 C35.5751025,80.7415 36.3957342,80.574785 36.8823544,80.0487705 C36.8391632,79.6463551 36.4187695,79.9855338 36.2690402,80.1120072 C35.9753404,80.3218382 35.5952584,80.2787222 35.2583675,80.3649541 C35.1115176,80.6581425 33.4155455,81.3278768 33.1621575,81.1180459 C32.6755373,81.4773454 32.1917966,80.8219831 31.7051764,80.9915725 C31.6648646,81.1180459 31.5784824,81.3911135 31.5381706,81.517587 C31.1984003,81.4342295 30.8845447,81.2445193 30.590845,81.07493 C30.1877276,80.9714517 29.7874897,81.0346884 29.3872518,81.0346884 L29.3872518,80.5690362 C29.6809516,80.3390845 29.9775308,80.1493744 30.2712305,79.9395435 C30.3547334,80.2758478 32.1370878,80.0458961 32.3904758,79.7929493 C32.3472847,79.6664758 31.0112387,79.7527077 30.9680476,79.6262343 C30.3777687,79.246814 30.0840689,79.1605821 29.367096,79.2640604 C29.3872518,79.0743502 29.4074077,78.9076353 29.4505989,78.7179251 C29.113708,78.4448575 28.8372847,78.0654372 28.4802379,77.8354855 C27.7488679,77.7492536 26.9973421,77.9763309 26.286128,77.6745193 C26.286128,77.6745193 22.3557342,75.8981425 19.9831009,69.9280217 C18.9983429,66.4557512 18.4368581,62.8110169 18.4368581,59.0254372 C18.4368581,36.9443261 36.3669401,19.0454614 58.4865628,19.0454614 C80.6090648,19.0454614 98.5391468,36.9443261 98.5391468,59.0254372 C98.5391468,81.1065483 80.6090648,99.0082874 58.4865628,99.0082874 M58.4865628,0.640702899 C26.1853486,0.640702899 0,26.7804614 0,59.0254372 C0,91.2732874 26.1853486,117.413046 58.4865628,117.413046 C90.7906563,117.413046 116.973126,91.2732874 116.973126,59.0254372 C116.973126,26.7804614 90.7906563,0.640702899 58.4865628,0.640702899" id="Fill-25" fill="#FECD03" mask="url(#mask-6)"></path>
                </g>
                <path d="M53.1967567,54.5976518 C53.0527567,54.7326518 51.7027567,56.7096518 52.1707567,56.8086518 C53.5387567,57.0966518 55.4347567,56.1396518 54.8017567,54.4836518 C54.5407567,53.8026518 53.5207567,54.2946518 53.1967567,54.5976518" id="Fill-28" fill="#FECD03"></path>
                <path d="M36.2735796,57.7710298 C36.1535796,57.8040298 36.0425796,57.9000298 35.9555796,58.0260298 C35.7725796,58.2900298 35.6885796,58.6830298 35.8115796,58.9140298 C36.0515796,59.3670298 36.6185796,59.2590298 37.0685796,59.1540298 C37.5575796,59.0400298 36.9545796,57.5790298 36.2735796,57.7710298" id="Fill-30" fill="#FECD03"></path>
                <path d="M25.3408373,64.3798986 C25.3198373,64.4028785 25.3018373,64.4287309 25.2838373,64.4545832 C24.8008373,65.2014293 25.2988373,66.6549068 26.1418373,66.9593902 C27.6208373,67.3069609 28.4128373,65.3364361 27.5458373,64.3655362 C27.1108373,63.8772137 25.7428373,63.8743412 25.3408373,64.3798986" id="Fill-32" fill="#FECD03"></path>
            </g>
        </g>
    </g>
</svg>